<svg version="1.1" xmlns="http://www.w3.org/2000/svg" viewBox="0 0 333.60911976207444 130.388350053267" width="1000.8273592862233" height="391.165050159801">
  <!-- svg-source:excalidraw -->
  
  <defs>
    <style>
      @font-face {
        font-family: "Virgil";
        src: url("https://excalidraw.com/Virgil.woff2");
      }
      @font-face {
        font-family: "Cascadia";
        src: url("https://excalidraw.com/Cascadia.woff2");
      }
    </style>
  </defs>
  <rect x="0" y="0" width="333.60911976207444" height="130.388350053267" fill="#ffffff"></rect><g transform="translate(101.69257146661766 70.55843838778424) rotate(0 47.5 12)"><text x="0" y="20" font-family="Cascadia, Segoe UI Emoji" font-size="20px" fill="#087f5b" text-anchor="start" style="white-space: pre;" direction="ltr">the peak</text></g><g transform="translate(56.91966663707444 119.599082253196) rotate(0 43.77091841264246 -54.799541126598)" stroke="none"><path fill="#087f5b" d="M -4.82,0.07 Q -4.82,0.07 -4.93,-2.24 -5.03,-4.55 -3.98,-8.29 -2.92,-12.02 -1.75,-14.74 -0.58,-17.46 1.22,-20.51 3.02,-23.55 5.03,-26.63 7.04,-29.70 8.86,-32.33 10.67,-34.96 11.79,-36.83 12.90,-38.70 14.56,-41.77 16.22,-44.85 17.72,-47.46 19.21,-50.07 21.10,-52.97 22.99,-55.86 24.79,-58.25 26.60,-60.65 28.91,-63.14 31.22,-65.63 33.20,-67.94 35.18,-70.26 37.18,-72.62 39.18,-74.99 41.65,-77.63 44.12,-80.27 45.62,-81.77 47.13,-83.27 48.66,-84.77 50.18,-86.27 52.18,-87.85 54.17,-89.44 56.87,-91.23 59.58,-93.03 62.11,-94.33 64.65,-95.64 66.75,-96.70 68.84,-97.76 70.76,-99.36 72.68,-100.96 74.20,-102.46 75.73,-103.96 77.40,-106.22 79.07,-108.48 80.00,-109.78 80.93,-111.08 81.34,-112.11 81.75,-113.15 82.48,-114.00 83.20,-114.85 84.15,-115.43 85.11,-116.00 86.20,-116.24 87.29,-116.48 88.40,-116.36 89.51,-116.24 90.52,-115.77 91.53,-115.30 92.34,-114.53 93.15,-113.77 93.67,-112.78 94.20,-111.79 94.38,-110.69 94.56,-109.59 94.38,-108.49 94.20,-107.39 93.67,-106.40 93.15,-105.42 92.34,-104.65 91.53,-103.89 90.52,-103.42 89.50,-102.95 88.40,-102.83 87.29,-102.71 86.20,-102.95 85.11,-103.19 84.15,-103.76 83.20,-104.34 82.47,-105.19 81.75,-106.04 81.34,-107.08 80.93,-108.11 80.87,-109.23 80.81,-110.34 81.10,-111.42 81.40,-112.49 82.03,-113.42 82.66,-114.34 83.54,-115.01 84.43,-115.69 85.49,-116.04 86.55,-116.40 87.66,-116.40 88.78,-116.40 89.84,-116.04 90.89,-115.69 91.78,-115.01 92.67,-114.33 93.30,-113.41 93.92,-112.49 94.22,-111.41 94.52,-110.34 94.46,-109.22 94.40,-108.11 94.40,-108.11 94.40,-108.11 92.38,-104.42 90.36,-100.72 89.02,-98.94 87.68,-97.16 85.57,-94.84 83.47,-92.52 81.36,-90.74 79.25,-88.95 77.33,-87.69 75.42,-86.44 72.65,-85.12 69.88,-83.81 66.99,-82.43 64.10,-81.05 61.58,-79.23 59.07,-77.41 56.15,-74.41 53.24,-71.41 51.06,-69.15 48.89,-66.90 46.80,-64.58 44.70,-62.25 42.52,-59.89 40.34,-57.52 38.13,-55.38 35.93,-53.24 34.18,-51.29 32.44,-49.34 30.48,-46.77 28.52,-44.19 26.82,-41.87 25.11,-39.55 23.00,-36.50 20.88,-33.44 19.54,-31.58 18.20,-29.72 16.52,-27.33 14.84,-24.95 13.11,-21.87 11.37,-18.80 9.90,-16.09 8.43,-13.38 7.42,-11.29 6.42,-9.19 5.65,-6.88 4.89,-4.57 4.86,-2.32 4.82,-0.07 4.76,0.50 4.70,1.08 4.50,1.62 4.31,2.17 3.98,2.66 3.66,3.14 3.23,3.53 2.80,3.93 2.29,4.20 1.78,4.48 1.21,4.63 0.65,4.78 0.07,4.79 -0.50,4.80 -1.07,4.67 -1.64,4.54 -2.16,4.27 -2.68,4.01 -3.12,3.63 -3.56,3.25 -3.90,2.78 -4.24,2.31 -4.45,1.76 -4.67,1.22 -4.74,0.65 -4.82,0.07 -4.82,0.07 L -4.82,0.07 Z"></path></g><g transform="translate(152.4166592684669 12.703219327059514) rotate(0 56.68390447443153 52.86347822709524)" stroke="none"><path fill="#087f5b" d="M 2.28,-4.72 Q 2.28,-4.72 4.47,-3.69 6.65,-2.67 9.55,-0.62 12.45,1.41 15.55,3.25 18.65,5.09 21.75,6.83 24.85,8.57 27.40,10.18 29.94,11.79 31.89,13.44 33.84,15.09 35.99,17.10 38.14,19.10 40.91,22.45 43.68,25.79 45.21,27.86 46.73,29.93 48.93,32.94 51.12,35.94 53.25,39.10 55.37,42.26 56.55,44.08 57.73,45.89 59.77,49.40 61.82,52.90 63.46,56.03 65.10,59.17 66.49,61.25 67.87,63.33 69.90,65.63 71.94,67.93 74.07,70.11 76.21,72.30 78.71,74.39 81.22,76.48 84.29,79.12 87.36,81.76 89.91,83.85 92.47,85.94 94.54,87.39 96.62,88.85 99.36,90.64 102.11,92.43 104.42,94.11 106.73,95.79 109.18,97.40 111.63,99.01 112.17,105.42 112.72,111.83 111.74,111.69 110.76,111.54 109.88,111.10 109.00,110.65 108.30,109.95 107.61,109.25 107.18,108.36 106.75,107.47 106.62,106.49 106.50,105.51 106.69,104.54 106.88,103.57 107.38,102.72 107.87,101.86 108.61,101.21 109.35,100.55 110.26,100.17 111.17,99.78 112.16,99.71 113.14,99.64 114.10,99.89 115.06,100.13 115.88,100.67 116.71,101.21 117.33,101.98 117.94,102.76 118.27,103.69 118.60,104.62 118.62,105.61 118.64,106.59 118.34,107.54 118.05,108.48 117.46,109.28 116.88,110.07 116.08,110.64 115.27,111.21 114.32,111.50 113.37,111.78 112.39,111.74 111.40,111.71 110.48,111.36 109.55,111.01 108.79,110.39 108.02,109.76 107.50,108.93 106.97,108.09 106.74,107.13 106.51,106.17 106.60,105.18 106.69,104.20 107.08,103.30 107.48,102.39 108.15,101.66 108.81,100.93 109.68,100.45 110.54,99.97 111.51,99.80 112.48,99.62 112.48,99.62 112.48,99.62 109.79,104.96 107.10,110.30 105.06,108.80 103.01,107.30 101.18,105.71 99.34,104.11 97.59,102.48 95.85,100.85 93.37,98.77 90.88,96.69 88.72,95.05 86.55,93.41 84.05,91.49 81.55,89.57 78.17,87.41 74.78,85.26 71.53,83.13 68.29,81.00 65.59,78.78 62.90,76.57 60.03,73.38 57.16,70.20 55.46,67.32 53.75,64.43 52.36,61.61 50.97,58.79 49.24,55.71 47.50,52.64 46.27,50.81 45.04,48.97 43.09,46.02 41.13,43.06 39.09,40.15 37.05,37.24 35.72,35.53 34.40,33.81 32.58,31.83 30.77,29.85 29.14,27.82 27.50,25.78 25.11,23.46 22.72,21.13 20.70,19.61 18.67,18.08 15.81,16.21 12.95,14.34 9.79,12.13 6.64,9.91 4.33,8.39 2.01,6.87 -0.13,5.79 -2.28,4.72 -2.81,4.38 -3.35,4.03 -3.78,3.57 -4.21,3.11 -4.53,2.56 -4.84,2.01 -5.01,1.40 -5.18,0.80 -5.20,0.16 -5.22,-0.46 -5.09,-1.08 -4.96,-1.70 -4.68,-2.27 -4.41,-2.83 -4.00,-3.32 -3.60,-3.81 -3.09,-4.18 -2.58,-4.56 -2.00,-4.80 -1.41,-5.05 -0.79,-5.14 -0.16,-5.24 0.46,-5.18 1.09,-5.13 1.68,-4.92 2.28,-4.72 2.28,-4.72 L 2.28,-4.72 Z"></path></g><g transform="translate(198.72197931463143 53.676619096235754) rotate(0 62.44357022372151 32.16158780184662)" stroke="none"><path fill="#087f5b" d="M 0,-5.06 Q 0,-5.06 2.39,-5.11 4.78,-5.15 7.31,-5.91 9.83,-6.68 12.05,-7.31 14.27,-7.94 17.59,-6.91 20.91,-5.88 23.82,-3.67 26.73,-1.45 29.44,0.34 32.15,2.14 35.61,4.39 39.08,6.64 42.91,8.69 46.75,10.74 50.09,12.21 53.43,13.69 56.29,14.85 59.15,16.01 61.73,17.08 64.31,18.15 67.50,19.54 70.69,20.92 73.79,22.65 76.89,24.37 79.17,25.97 81.46,27.57 84.43,30.26 87.40,32.96 90.45,35.64 93.50,38.33 96.74,41.07 99.97,43.81 103.31,46.54 106.64,49.27 109.17,50.94 111.69,52.62 113.89,54.01 116.09,55.41 118.81,56.96 121.54,58.50 124.65,60.51 127.76,62.51 128.36,63.08 128.95,63.65 129.33,64.38 129.71,65.11 129.84,65.92 129.97,66.74 129.83,67.55 129.70,68.36 129.31,69.08 128.92,69.81 128.32,70.37 127.71,70.93 126.97,71.28 126.22,71.62 125.40,71.70 124.58,71.79 123.77,71.61 122.97,71.42 122.27,71.00 121.57,70.57 121.04,69.94 120.51,69.31 120.21,68.54 119.91,67.77 119.87,66.95 119.83,66.13 120.05,65.34 120.28,64.54 120.74,63.86 121.21,63.19 121.87,62.69 122.52,62.20 123.31,61.94 124.09,61.68 124.91,61.68 125.73,61.69 126.51,61.96 127.29,62.22 127.94,62.73 128.60,63.23 129.06,63.91 129.51,64.60 129.73,65.39 129.94,66.19 129.90,67.01 129.85,67.83 129.54,68.59 129.23,69.36 128.69,69.98 128.15,70.60 127.45,71.02 126.74,71.45 125.93,71.62 125.13,71.79 124.31,71.70 123.49,71.60 122.75,71.25 122.00,70.90 122.00,70.90 122.00,70.90 118.93,68.35 115.86,65.79 113.62,63.89 111.39,62.00 109.34,60.37 107.29,58.73 104.83,56.83 102.37,54.93 98.82,52.46 95.27,49.99 91.73,47.58 88.19,45.17 84.74,42.80 81.28,40.43 78.36,38.31 75.45,36.19 73.31,34.70 71.18,33.22 68.43,31.29 65.69,29.36 63.19,27.77 60.69,26.19 58.26,25.01 55.83,23.83 53.04,22.59 50.26,21.36 46.73,20.00 43.20,18.64 38.84,17.00 34.48,15.36 30.45,13.66 26.43,11.95 23.29,10.35 20.16,8.74 17.20,6.22 14.24,3.69 12.03,4.10 9.81,4.51 7.31,4.83 4.80,5.15 2.40,5.11 0,5.06 -0.60,4.99 -1.21,4.92 -1.78,4.70 -2.35,4.48 -2.85,4.13 -3.36,3.79 -3.76,3.33 -4.17,2.87 -4.45,2.33 -4.73,1.79 -4.88,1.20 -5.03,0.61 -5.03,-0.00 -5.03,-0.61 -4.88,-1.20 -4.73,-1.79 -4.45,-2.33 -4.17,-2.87 -3.76,-3.33 -3.36,-3.79 -2.85,-4.14 -2.35,-4.48 -1.78,-4.70 -1.21,-4.92 -0.60,-4.99 0.00,-5.06 0.00,-5.06 L 0,-5.06 Z"></path></g><g transform="translate(10 116.02727716619324) rotate(0 29.62283047762776 -21.43220381303263)" stroke="none"><path fill="#087f5b" d="M -3.38,-2.87 Q -3.38,-2.87 0.32,-6.88 4.03,-10.89 7.43,-14.56 10.83,-18.23 14.11,-21.55 17.39,-24.87 20.36,-27.52 23.33,-30.16 25.28,-32.19 27.23,-34.22 28.90,-36.06 30.57,-37.89 32.18,-39.37 33.80,-40.85 35.58,-42.64 37.36,-44.43 41.36,-45.71 45.35,-46.99 47.56,-46.00 49.77,-45.02 52.28,-43.91 54.80,-42.81 57.50,-41.82 60.21,-40.84 61.15,-40.53 62.09,-40.21 62.88,-39.62 63.68,-39.02 64.24,-38.20 64.80,-37.38 65.07,-36.43 65.34,-35.47 65.29,-34.48 65.24,-33.49 64.87,-32.57 64.51,-31.64 63.87,-30.88 63.23,-30.12 62.38,-29.61 61.53,-29.09 60.57,-28.88 59.60,-28.66 58.61,-28.76 57.62,-28.86 56.72,-29.28 55.82,-29.69 55.10,-30.37 54.37,-31.05 53.90,-31.93 53.43,-32.80 53.27,-33.78 53.11,-34.76 53.26,-35.74 53.42,-36.72 53.88,-37.60 54.34,-38.48 55.06,-39.16 55.78,-39.85 56.68,-40.27 57.58,-40.69 58.56,-40.80 59.55,-40.91 60.52,-40.70 61.49,-40.49 62.34,-39.98 63.19,-39.47 63.84,-38.72 64.48,-37.97 64.86,-37.05 65.23,-36.13 65.28,-35.13 65.34,-34.14 65.08,-33.19 64.82,-32.23 64.26,-31.40 63.71,-30.58 62.92,-29.98 62.14,-29.37 61.20,-29.05 60.26,-28.73 59.26,-28.73 58.27,-28.72 58.27,-28.72 58.27,-28.72 56.08,-29.38 53.89,-30.04 51.93,-31.04 49.97,-32.03 47.38,-33.43 44.79,-34.83 42.15,-37.09 39.51,-39.35 42.40,-38.68 45.29,-38.01 43.38,-36.89 41.48,-35.78 38.79,-33.97 36.10,-32.16 34.16,-30.51 32.23,-28.86 30.00,-27.00 27.77,-25.13 25.02,-22.72 22.27,-20.31 19.28,-16.92 16.29,-13.52 13.19,-9.64 10.08,-5.77 6.73,-1.44 3.38,2.87 2.99,3.23 2.60,3.59 2.13,3.85 1.66,4.11 1.14,4.25 0.63,4.39 0.09,4.40 -0.43,4.42 -0.96,4.30 -1.48,4.18 -1.96,3.94 -2.44,3.71 -2.85,3.36 -3.25,3.01 -3.57,2.58 -3.88,2.15 -4.08,1.65 -4.28,1.15 -4.36,0.62 -4.44,0.09 -4.38,-0.43 -4.33,-0.96 -4.15,-1.47 -3.97,-1.97 -3.68,-2.42 -3.38,-2.87 -3.38,-2.87 L -3.38,-2.87 Z"></path></g></svg>